<svg id="Ñëîé_1" data-name="Ñëîé 1" xmlns="http://www.w3.org/2000/svg" viewBox="0 0 2485.09 486.26"><defs><style>.cls-1,.cls-3{fill:#0ca4a5;}.cls-2{fill:#fff;}.cls-3{font-size:257.77px;font-family:PirulenRg-Regular, Pirulen;}.cls-4{letter-spacing:-0.03em;}.cls-5{letter-spacing:-0.17em;}</style></defs><path class="cls-1" d="M2347.93,169.3a10.12,10.12,0,0,0-1.71-3.3,8.61,8.61,0,0,0-1.95-1.77,12.36,12.36,0,0,0-1.19-.65,14.28,14.28,0,0,0-3.64-1.1,25.81,25.81,0,0,0-2.84-.29,53.69,53.69,0,0,0-9.56.61c-3,.42-5.92,1-8.8,1.55-5.76,1.23-11.38,2.73-17,4.31s-11.07,3.44-16.55,5.3-10.89,4-16.29,6.07-10.73,4.42-16.06,6.79-10.61,4.86-15.86,7.64c-2.62,1.4-5.23,2.87-7.84,4.5-1.31.82-2.62,1.68-4,2.65-.66.49-1.34,1-2,1.6-.35.29-.71.62-1.07,1l-.79.77-6.33,6.16-5,4.93c-4.91-.38-9.77-.69-14.67-.86-5.63-.19-11.26-.29-16.89-.23s-11.27.29-16.9.8l-.39,0-.39,0c-5.62-.51-11.26-.69-16.89-.8s-11.27,0-16.89.23c-4.9.17-9.76.48-14.68.86l-5-4.93-6.33-6.16-.79-.77c-.36-.34-.72-.67-1.07-1-.7-.59-1.37-1.11-2-1.6-1.33-1-2.64-1.83-4-2.65-2.62-1.63-5.23-3.1-7.85-4.5-5.24-2.78-10.54-5.25-15.86-7.64s-10.66-4.66-16-6.79-10.83-4.14-16.29-6.07-11-3.65-16.56-5.3-11.2-3.08-17-4.31c-2.89-.59-5.8-1.13-8.8-1.55a53.69,53.69,0,0,0-9.56-.61,26.23,26.23,0,0,0-2.85.29,14.11,14.11,0,0,0-3.63,1.1,11.28,11.28,0,0,0-1.19.65,8.21,8.21,0,0,0-1.95,1.77,9.93,9.93,0,0,0-1.71,3.3,15.49,15.49,0,0,0-.62,4.24,31.73,31.73,0,0,0,.54,5.93,45.5,45.5,0,0,0,1.25,5.28c2.08,6.5,4.57,12,6.92,17.64,4.73,11.11,9.42,22.06,11.86,33.22.34,1.39.54,2.77.78,4.16.12.66.23,1.46.34,2.22l.34,2.3c.43,3.06.93,6.13,1.44,9.21a185.39,185.39,0,0,0,4,18.53,64.94,64.94,0,0,0,3.41,9.34,42.78,42.78,0,0,0,2.41,4.48c.89,1.41,1.82,2.78,2.74,4l.15.21a4.1,4.1,0,0,1,0,.57,22,22,0,0,1-.79,3.62c-.78,2.64-1.82,5.41-2.91,8.17-4.41,11.11-9.58,22.26-13.12,34.43a78.48,78.48,0,0,0-2.15,9.43,39.45,39.45,0,0,0-.41,10.25,22.45,22.45,0,0,0,1.25,5.4,16.33,16.33,0,0,0,1.23,2.61l1.13,1.91a81.22,81.22,0,0,1,3.95,7.73c4.87,10.73,8.26,22.51,13,33.9,2.42,5.67,5.18,11.36,9.25,16.19a26.31,26.31,0,0,0,7.14,6.05l7.46,4.41c19.87,11.84,39.93,23.52,60.85,33.22a257.08,257.08,0,0,0,32.09,12.57c10.95,3.35,22.26,5.75,33.71,5.73h.08c11.46,0,22.77-2.38,33.71-5.73a257.22,257.22,0,0,0,32.1-12.57c20.92-9.7,41-21.38,60.85-33.22l7.45-4.41a26.5,26.5,0,0,0,7.15-6.05c4.07-4.83,6.83-10.52,9.25-16.19,4.77-11.39,8.16-23.17,13-33.9a81.22,81.22,0,0,1,4-7.73l1.14-1.91a18.26,18.26,0,0,0,1.23-2.61,22.45,22.45,0,0,0,1.25-5.4,39.45,39.45,0,0,0-.41-10.25,80.45,80.45,0,0,0-2.15-9.43c-3.55-12.17-8.71-23.32-13.12-34.43-1.09-2.76-2.14-5.53-2.91-8.17a22,22,0,0,1-.79-3.62,4.31,4.31,0,0,1,0-.57l.15-.21c.92-1.23,1.85-2.6,2.75-4a46.86,46.86,0,0,0,2.41-4.48,63.7,63.7,0,0,0,3.4-9.34,180,180,0,0,0,4-18.53c.52-3.08,1-6.15,1.45-9.21l.33-2.3c.12-.76.22-1.56.35-2.22.24-1.39.43-2.77.77-4.16,2.45-11.16,7.13-22.11,11.86-33.22,2.36-5.62,4.84-11.14,6.93-17.64a45.5,45.5,0,0,0,1.25-5.28,31.78,31.78,0,0,0,.53-5.93A15.42,15.42,0,0,0,2347.93,169.3Zm-338.7,121.15v0Zm302.9,0,0,0Zm-303.19-.6a.38.38,0,0,0,0-.08A.28.28,0,0,1,2008.94,289.83Zm303.46,0c0-.05,0-.08,0-.08Z"/><path class="cls-2" d="M1994.67,186.4c-4.58-13.06,63.47,23.37,63.47,23.37l-13.95,3,4.19,33.22-17.27-22,5.76,22-14.13-5.23,3.22,42.9S1997.11,193.38,1994.67,186.4Z"/><path class="cls-2" d="M2326.93,186.4c4.57-13.06-63.48,23.37-63.48,23.37l14,3L2273.22,246l17.26-22-5.75,22,14.12-5.23-3.21,42.9S2324.49,193.38,2326.93,186.4Z"/><path class="cls-2" d="M2189,416.21c-9.66-7.83-19.1-10.26-28.24-10.26s-18.58,2.43-28.25,10.26c-.72.58,20.44-.18,11.67,10.59a49.49,49.49,0,0,0,33.16,0C2168.6,416,2189.76,416.79,2189,416.21Z"/><path class="cls-2" d="M2217.07,447.54a77.54,77.54,0,0,1-17.7,3.17,58.41,58.41,0,0,1-8.88-.14,44,44,0,0,1-8.6-1.59,29.25,29.25,0,0,1-7.73-3.55,31.39,31.39,0,0,1-6.23-5.34,25.17,25.17,0,0,1-4.45-7,47.86,47.86,0,0,1-2.58-8.5h-.46a47.85,47.85,0,0,1-2.57,8.5,25.64,25.64,0,0,1-4.45,7,31.73,31.73,0,0,1-6.24,5.34,29.19,29.19,0,0,1-7.72,3.55,44.08,44.08,0,0,1-8.6,1.59,58.43,58.43,0,0,1-8.88.14,77.62,77.62,0,0,1-17.71-3.17l-.15.44a73.88,73.88,0,0,0,17.63,5,51.89,51.89,0,0,0,18.62-.46,36.9,36.9,0,0,0,9.1-3.18A22.34,22.34,0,0,0,2157,443a22,22,0,0,0,3.67-7.7,22.07,22.07,0,0,0,3.68,7.7,22.31,22.31,0,0,0,7.52,6.39,36.9,36.9,0,0,0,9.1,3.18,52,52,0,0,0,18.63.46,73.88,73.88,0,0,0,17.63-5Z"/><path class="cls-1" d="M2383.21,213.43a11.83,11.83,0,0,0-6-1.6,12.29,12.29,0,0,0-3,.38,12.93,12.93,0,0,0-2.32.84l-6.45,3-1.33-7C2345,108.24,2263.28,40.47,2160.8,40.47s-184.2,67.77-203.35,168.62l-1.33,7-6.45-3a12.4,12.4,0,0,0-2.32-.84,12.27,12.27,0,0,0-3-.38,11.78,11.78,0,0,0-6,1.6l-10.2,5.91,2-11.62a252,252,0,0,1,14.22-50.78,224.23,224.23,0,0,1,50.29-76.42C2037.53,38,2096.52,14.63,2160.8,14.63S2284.07,38,2326.9,80.52a223.94,223.94,0,0,1,50.29,76.42,252,252,0,0,1,14.22,50.78l2,11.62Z"/><path class="cls-2" d="M2160.8,20.14c62.81,0,120.42,22.83,162.22,64.3A218.53,218.53,0,0,1,2372.07,159,245.35,245.35,0,0,1,2386,208.65a17.44,17.44,0,0,0-8.73-2.33h0a17.89,17.89,0,0,0-4.36.54,19.07,19.07,0,0,0-3.33,1.2C2350.06,105.37,2268.25,35,2160.8,35S1971.53,105.37,1952,208.06a19.48,19.48,0,0,0-3.34-1.2,17.81,17.81,0,0,0-4.35-.54h0a17.44,17.44,0,0,0-8.73,2.33,246,246,0,0,1,13.9-49.66,218.41,218.41,0,0,1,49.06-74.55c41.79-41.47,99.4-64.3,162.22-64.3m0-11c-65.75,0-126.12,24-170,67.5a229.65,229.65,0,0,0-51.53,78.28,257.28,257.28,0,0,0-14.53,51.9l-4,23.24,20.4-11.83a6.23,6.23,0,0,1,3.2-.85,6.67,6.67,0,0,1,1.65.21,7.35,7.35,0,0,1,1.31.47l12.9,6.11,2.66-14C1981.8,110.42,2059.49,46,2160.8,46s179,64.43,197.92,164.13l2.67,14,12.89-6.11a8,8,0,0,1,1.31-.47,6.74,6.74,0,0,1,1.66-.21,6.2,6.2,0,0,1,3.19.85l20.4,11.83-4-23.24a258.12,258.12,0,0,0-14.53-51.9,229.53,229.53,0,0,0-51.54-78.28c-43.87-43.53-104.24-67.5-170-67.5Z"/><path class="cls-1" d="M1896.27,368.16a13.3,13.3,0,0,1-10.79-5.37c-23.73-32.81-38.86-85.58-44.26-106.75a13.08,13.08,0,0,1,2.32-11.15,14.48,14.48,0,0,1,11.25-5.74l27.26-.77.64,3.68a382.89,382.89,0,0,0,18.73,69.64,354.47,354.47,0,0,0,18.07,40.09l1.89,3.6-17.83,10.74a14,14,0,0,1-7.27,2Z"/><path class="cls-2" d="M1878.43,242.79a388.46,388.46,0,0,0,19,70.43,361.87,361.87,0,0,0,18.28,40.57l-14.34,8.65a9.79,9.79,0,0,1-5.06,1.4,8.94,8.94,0,0,1-7.29-3.58c-23.08-31.9-37.86-82.88-43.58-105.28-1.45-5.7,3.21-11.34,9.51-11.52l23.52-.67m7.24-8.83-7.48.21-23.52.66a18.85,18.85,0,0,0-14.58,7.46,17.41,17.41,0,0,0-3,14.82,499.47,499.47,0,0,0,15.56,50c9,24.16,18.91,43.75,29.39,58.23a17.58,17.58,0,0,0,14.28,7.16,18.42,18.42,0,0,0,9.51-2.64l14.35-8.65,6.95-4.2-3.77-7.2a351.14,351.14,0,0,1-17.85-39.6,378.5,378.5,0,0,1-18.52-68.85l-1.27-7.37Z"/><path class="cls-1" d="M1973.63,368.92a20,20,0,0,0-2.14-4.77,377.76,377.76,0,0,1-32.07-65.82c-11.59-30.84-19.16-62.54-21.9-91.67a21.18,21.18,0,0,0-.51-2.94l-.59-2.43,1.83-1.72c8.42-7.9,18-12,28.4-12.12h1c14.74,0,24.5,4.62,30.72,14.55,5.46,8.72,7.64,20.39,10.39,35.17,1.72,9.21,3.66,19.65,6.75,30.78,2.73,9.85,7.63,19.47,12.36,28.77,5,9.82,9.71,19.09,11.73,28.18,2.41,10.82.53,19.88-5.74,27.67-6.64,8.26-18.4,14.74-35,19.25l-4,1.11Z"/><path class="cls-2" d="M1947.64,191.76c37.64,0,31.1,32,43.7,77.34,8.61,31,37.06,58.5,19.15,80.77-7.11,8.84-20.17,14.36-32.73,17.79a24.86,24.86,0,0,0-2.6-5.78,373.41,373.41,0,0,1-31.7-65.07c-11.46-30.49-18.94-61.8-21.64-90.56a25.52,25.52,0,0,0-.62-3.53c6.29-5.9,14.73-10.81,25.51-10.95h.93m0-8.63h-1.05a43.42,43.42,0,0,0-18,4.13,51.35,51.35,0,0,0-13.32,9.15l-3.66,3.43,1.17,4.88a17.12,17.12,0,0,1,.42,2.33c2.77,29.51,10.43,61.59,22.16,92.79a380.34,380.34,0,0,0,32.44,66.57,16.1,16.1,0,0,1,1.67,3.75l2.44,8L1980,376c17.45-4.76,30-11.73,37.18-20.71a34,34,0,0,0,7.18-15.5,39.74,39.74,0,0,0-.59-15.82c-2.14-9.62-7-19.13-12.1-29.19-4.63-9.12-9.42-18.54-12-28-3-11-5-21.29-6.67-30.41-2.72-14.63-5.08-27.26-11-36.67a32.66,32.66,0,0,0-13.65-12.45c-5.7-2.78-12.48-4.13-20.73-4.13Z"/><path class="cls-1" d="M1955.76,393.7a19.56,19.56,0,0,1-16.44-9.26l-.32-.51c-.07-.12-.15-.24-.23-.36-7.62-12-14.55-24.09-20.59-36-3.29-6.47-6.43-13.14-9.34-19.81-2.56-5.87-4.73-11.18-6.63-16.22a381.09,381.09,0,0,1-18.45-67.94c-.69-3.91-1.32-7.8-1.86-11.56-1.16-7.94-2.07-15.88-2.72-23.6-.79-9.39,5-17.7,13.82-19.75a18.16,18.16,0,0,1,4.1-.47h.34a18.54,18.54,0,0,1,7.44,1.71,20.7,20.7,0,0,1,11.88,16.92c.14,1.51.31,3.14.52,5,3.08,27.64,10.46,57.57,21.35,86.55a377,377,0,0,0,32,65.75,21.22,21.22,0,0,1,2,4.25c2.84,8.3.21,17.12-6.54,21.94h0a17.74,17.74,0,0,1-6.26,2.84,18,18,0,0,1-4.08.46Z"/><path class="cls-2" d="M1897.1,192.58h.26a14.48,14.48,0,0,1,5.73,1.32,16.48,16.48,0,0,1,9.37,13.4c.16,1.69.34,3.38.53,5.08,3.13,28.09,10.48,58,21.61,87.59a380.34,380.34,0,0,0,32.4,66.51,16.12,16.12,0,0,1,1.58,3.37c2.15,6.29.28,13.28-5,17l0,0a13.43,13.43,0,0,1-4.71,2.14,14.1,14.1,0,0,1-3.1.35,15.33,15.33,0,0,1-12.8-7.27l-.54-.87c-7.21-11.33-14.08-23.2-20.39-35.6q-4.87-9.57-9.24-19.57c-2.29-5.26-4.49-10.58-6.54-16A377.89,377.89,0,0,1,1888,242.89c-.68-3.82-1.29-7.64-1.85-11.43-1.14-7.89-2-15.69-2.68-23.34-.62-7.41,4-13.66,10.51-15.19a13.72,13.72,0,0,1,3.11-.35m0-8.63a22.18,22.18,0,0,0-5.08.58c-10.89,2.54-18.1,12.77-17.14,24.31.65,7.8,1.58,15.83,2.75,23.86.55,3.81,1.18,7.74,1.88,11.69a385.52,385.52,0,0,0,18.67,68.71c1.92,5.11,4.11,10.48,6.7,16.43,2.95,6.75,6.13,13.49,9.46,20,6.1,12,13.1,24.2,20.79,36.31.07.11.14.21.2.32l.36.57A23.85,23.85,0,0,0,1955.76,398a22.57,22.57,0,0,0,5.06-.58,22,22,0,0,0,7.77-3.52l0,0a22.34,22.34,0,0,0,8.54-12.21,24.34,24.34,0,0,0-.42-14.62,25.68,25.68,0,0,0-2.41-5.13,372.51,372.51,0,0,1-31.67-65c-10.76-28.65-18.06-58.22-21.1-85.52-.21-1.83-.38-3.44-.51-4.92a25.06,25.06,0,0,0-14.39-20.45,23.07,23.07,0,0,0-9.15-2.1Z"/><path class="cls-1" d="M2425.32,368.16a14.08,14.08,0,0,1-7.28-2l-17.82-10.74,1.88-3.6a354.47,354.47,0,0,0,18.07-40.09,382.91,382.91,0,0,0,18.74-69.64l.63-3.68,27.26.77a14.5,14.5,0,0,1,11.26,5.74,13.08,13.08,0,0,1,2.31,11.15c-5.4,21.17-20.53,73.94-44.26,106.75A13.28,13.28,0,0,1,2425.32,368.16Z"/><path class="cls-2" d="M2443.16,242.79l23.52.67c6.31.18,11,5.82,9.51,11.52-5.72,22.4-20.5,73.38-43.57,105.28a9,9,0,0,1-7.3,3.58,9.76,9.76,0,0,1-5.05-1.4l-14.35-8.65a360.18,360.18,0,0,0,18.29-40.57,388.44,388.44,0,0,0,18.95-70.43m-7.24-8.83-1.26,7.37a378.52,378.52,0,0,1-18.53,68.85,347.61,347.61,0,0,1-17.85,39.6l-3.77,7.2,7,4.2,14.34,8.65a18.42,18.42,0,0,0,9.51,2.64,17.59,17.59,0,0,0,14.29-7.16c10.47-14.48,20.36-34.07,29.39-58.23a496.35,496.35,0,0,0,15.55-50,17.34,17.34,0,0,0-3.05-14.82,18.83,18.83,0,0,0-14.57-7.46l-23.53-.66-7.48-.21Z"/><path class="cls-1" d="M2342.7,371.82c-16.56-4.51-28.32-11-35-19.25-6.27-7.79-8.15-16.85-5.73-27.67,2-9.09,6.73-18.36,11.73-28.18,4.73-9.3,9.62-18.92,12.35-28.77,3.09-11.13,5-21.57,6.75-30.78,2.76-14.78,4.93-26.45,10.39-35.17,6.22-9.93,16-14.55,30.72-14.55h1c10.42.15,20,4.22,28.39,12.12l1.83,1.72-.58,2.43a21.33,21.33,0,0,0-.52,2.94c-2.73,29.13-10.31,60.83-21.9,91.67a377.76,377.76,0,0,1-32.07,65.82,20,20,0,0,0-2.14,4.77l-1.21,4Z"/><path class="cls-2" d="M2374,191.76h.94c10.78.14,19.22,5,25.5,10.95a24.1,24.1,0,0,0-.61,3.53c-2.7,28.76-10.19,60.07-21.65,90.56a372.7,372.7,0,0,1-31.7,65.07,24.41,24.41,0,0,0-2.59,5.78c-12.57-3.43-25.62-9-32.74-17.79-17.9-22.27,10.54-49.76,19.15-80.77,12.6-45.39,6.06-77.34,43.7-77.34m0-8.63h0c-8.24,0-15,1.35-20.72,4.13a32.6,32.6,0,0,0-13.65,12.45c-5.9,9.41-8.25,22-11,36.67-1.7,9.12-3.62,19.46-6.66,30.41-2.62,9.44-7.41,18.86-12.05,28-5.12,10.06-9.95,19.57-12.1,29.19a39.93,39.93,0,0,0-.59,15.82,34.12,34.12,0,0,0,7.18,15.5c7.22,9,19.73,15.94,37.19,20.71l8.09,2.2,2.43-8a16.12,16.12,0,0,1,1.68-3.75,381.75,381.75,0,0,0,32.44-66.57c11.72-31.2,19.39-63.29,22.16-92.79a16.94,16.94,0,0,1,.41-2.33l1.17-4.88-3.66-3.43a51.47,51.47,0,0,0-13.31-9.15,43.46,43.46,0,0,0-18-4.13Z"/><path class="cls-1" d="M2365.83,393.7a17.82,17.82,0,0,1-4.07-.46,17.64,17.64,0,0,1-6.24-2.83l-.06,0c-6.74-4.8-9.37-13.62-6.53-21.92a20.72,20.72,0,0,1,2-4.25,376.94,376.94,0,0,0,32-65.75c10.89-29,18.28-58.91,21.36-86.55.21-1.87.37-3.51.51-5A20.69,20.69,0,0,1,2416.72,190a18.45,18.45,0,0,1,7.43-1.71h.35a18.07,18.07,0,0,1,4.09.47c8.8,2.05,14.61,10.36,13.82,19.75-.64,7.71-1.56,15.66-2.71,23.6-.55,3.77-1.18,7.66-1.86,11.56a382,382,0,0,1-18.46,67.94c-1.9,5-4.06,10.35-6.62,16.22-2.91,6.67-6.06,13.34-9.35,19.81-6,11.87-13,24-20.59,36l-.23.37c-.11.17-.21.34-.32.5A19.55,19.55,0,0,1,2365.83,393.7Z"/><path class="cls-2" d="M2424.5,192.58a13.85,13.85,0,0,1,3.11.35c6.53,1.53,11.13,7.78,10.51,15.19-.65,7.65-1.54,15.45-2.69,23.34-.55,3.79-1.17,7.61-1.84,11.43a377.09,377.09,0,0,1-18.25,67.17c-2,5.44-4.25,10.76-6.54,16q-4.35,10-9.23,19.57c-6.31,12.4-13.19,24.27-20.39,35.6l-.54.87a15.36,15.36,0,0,1-12.81,7.27,13.94,13.94,0,0,1-3.09-.35,13.4,13.4,0,0,1-4.72-2.14l0,0c-5.26-3.75-7.13-10.74-5-17a16.64,16.64,0,0,1,1.58-3.37A381.08,381.08,0,0,0,2387,300c11.12-29.6,18.47-59.5,21.6-87.59.19-1.7.37-3.39.53-5.08a16.47,16.47,0,0,1,9.38-13.4,14.47,14.47,0,0,1,5.72-1.32h.27m0-8.63h-.43a23,23,0,0,0-9.14,2.1,25,25,0,0,0-14.39,20.45c-.14,1.48-.31,3.09-.51,4.93-3,27.29-10.34,56.86-21.11,85.51a373.19,373.19,0,0,1-31.66,65,24.62,24.62,0,0,0-2.41,5.13,24.35,24.35,0,0,0-.43,14.62A22.42,22.42,0,0,0,2353,393.9h0a22,22,0,0,0,7.79,3.53,22.48,22.48,0,0,0,5,.58,23.87,23.87,0,0,0,20.08-11.25l.35-.57.2-.32c7.7-12.11,14.7-24.32,20.8-36.31,3.33-6.55,6.51-13.29,9.45-20,2.59-5.94,4.79-11.32,6.71-16.43a387.21,387.21,0,0,0,18.67-68.71c.69-3.95,1.32-7.88,1.88-11.69,1.17-8,2.09-16.06,2.74-23.86,1-11.54-6.24-21.77-17.14-24.31a22.09,22.09,0,0,0-5.07-.58Z"/><path class="cls-1" d="M2057.85,69.36a23.7,23.7,0,0,1-12.13-3.28,20.84,20.84,0,0,1-6.21-5.62,19.27,19.27,0,0,1-2.37-4.3,18.37,18.37,0,0,1,.22-14,21.76,21.76,0,0,1,10.37-10.79,250.12,250.12,0,0,1,26.76-11.58c4.47-1.63,9.09-3.16,13.74-4.57a253.64,253.64,0,0,1,73.45-10.87c4.48,0,9,.13,13.46.37,7,.38,14.17,1.11,21.78,2.22a251,251,0,0,1,26.73,5.42A264.15,264.15,0,0,1,2271.57,30l.47.23.67.32c8.89,4.33,13.9,13.14,12.47,21.93a18.64,18.64,0,0,1-2.68,7l0,.06a21.38,21.38,0,0,1-18.23,9.53A24.63,24.63,0,0,1,2254,66.81a220.22,220.22,0,0,0-80.66-19.87c-4.22-.24-8.5-.36-12.72-.36-30.77,0-60.84,6.21-87,18-1.86.83-3.54,1.61-5.16,2.4A24.66,24.66,0,0,1,2057.85,69.36Z"/><path class="cls-2" d="M2161.68,8.63q6.6,0,13.22.36c7.22.39,14.35,1.15,21.39,2.18a244.78,244.78,0,0,1,26.27,5.33,258.87,258.87,0,0,1,47.14,17.37l1.12.53c7.42,3.62,11.17,10.8,10.1,17.36a14.36,14.36,0,0,1-2.07,5.42l0,0a17.12,17.12,0,0,1-14.6,7.54,19.41,19.41,0,0,1-4.4-.5,20.27,20.27,0,0,1-4-1.36,223.6,223.6,0,0,0-82.24-20.26q-6.51-.37-13-.37c-32,0-62.86,6.7-88.72,18.33-1.78.79-3.54,1.61-5.27,2.44a20.06,20.06,0,0,1-8.76,2,19.53,19.53,0,0,1-9.93-2.68,16.73,16.73,0,0,1-4.93-4.45,15.68,15.68,0,0,1-1.84-3.34c-2.78-7,.43-15.32,8.52-19.4A244.19,244.19,0,0,1,2076,23.81q6.63-2.41,13.51-4.5a250.72,250.72,0,0,1,72.2-10.68m0-8.63A257.65,257.65,0,0,0,2087,11.06c-4.73,1.42-9.43,3-14,4.64a252.83,252.83,0,0,0-27.23,11.78,26,26,0,0,0-12.39,13,22.63,22.63,0,0,0-.26,17.31A23.84,23.84,0,0,0,2036,63a25.07,25.07,0,0,0,7.48,6.77h0a28,28,0,0,0,14.34,3.9,28.88,28.88,0,0,0,12.52-2.87c1.58-.76,3.22-1.53,5-2.33,25.59-11.51,55-17.58,85.2-17.58,4.15,0,8.35.12,12.48.35a216,216,0,0,1,79.07,19.46,28.64,28.64,0,0,0,5.75,2,28.26,28.26,0,0,0,6.33.72,25.63,25.63,0,0,0,21.86-11.52h0l0,0a22.77,22.77,0,0,0,3.3-8.67,23.77,23.77,0,0,0-2.86-15.41,27.37,27.37,0,0,0-12-11.08l-.73-.35-.43-.2a267.7,267.7,0,0,0-48.7-18,251.91,251.91,0,0,0-27.2-5.51c-7.74-1.14-15-1.88-22.17-2.27-4.52-.24-9.13-.37-13.69-.37Z"/><text class="cls-3" transform="translate(0 350.5)"><tspan class="cls-4">A</tspan><tspan x="256.74" y="0">UDIOC</tspan><tspan class="cls-5" x="1346.57" y="0">A</tspan><tspan x="1567.48" y="0">T</tspan></text></svg>